<?xml version="1.0" standalone="no"?>
<!DOCTYPE svg PUBLIC "-//W3C//DTD SVG 20010904//EN"
 "http://www.w3.org/TR/2001/REC-SVG-20010904/DTD/svg10.dtd">
<svg version="1.0" xmlns="http://www.w3.org/2000/svg"
 width="1000.000000pt" height="1000.000000pt" viewBox="0 0 1000.000000 1000.000000"
 preserveAspectRatio="xMidYMid meet">
<metadata>
Created by potrace 1.14, written by Peter Selinger 2001-2017
</metadata>
<g transform="translate(0.000000,1000.000000) scale(0.100000,-0.100000)"
fill="#000000" stroke="none">
<path d="M4958 9175 c-1 -2 -22 -6 -45 -10 -23 -3 -64 -11 -91 -18 -66 -18
-147 -20 -218 -8 -198 35 -188 35 -295 -16 -136 -65 -178 -80 -240 -88 -139
-16 -194 -30 -334 -85 -82 -32 -172 -61 -200 -64 -27 -4 -76 -11 -107 -16 -32
-6 -69 -12 -82 -14 -62 -11 -291 -143 -425 -245 -76 -58 -103 -75 -402 -255
-193 -116 -152 -79 -475 -426 -28 -30 -114 -127 -191 -215 -77 -88 -164 -183
-194 -211 -67 -63 -111 -117 -178 -218 -69 -104 -73 -113 -115 -240 -46 -136
-49 -141 -137 -257 -86 -112 -94 -126 -149 -284 -23 -66 -68 -181 -100 -255
-47 -111 -77 -195 -104 -295 -1 -5 -8 -28 -14 -50 -25 -88 -27 -154 -21 -635
1 -107 0 -233 -3 -280 -20 -281 -21 -271 2 -370 33 -146 39 -182 45 -272 13
-188 16 -205 51 -289 19 -46 37 -88 38 -94 2 -5 8 -21 13 -35 11 -27 19 -64
27 -120 2 -19 8 -57 11 -85 14 -104 30 -177 50 -220 7 -16 25 -63 40 -104 21
-60 75 -154 105 -181 16 -14 110 -162 132 -205 117 -236 251 -451 339 -545 46
-50 86 -106 147 -210 71 -121 88 -139 232 -240 58 -41 107 -77 110 -80 3 -3
39 -31 81 -62 78 -57 131 -107 230 -213 66 -71 152 -151 234 -219 108 -89 477
-253 665 -296 52 -12 136 -30 185 -42 50 -11 97 -22 105 -23 8 -2 16 -4 18 -5
1 -2 5 -3 10 -4 74 -18 218 -71 332 -124 77 -36 124 -49 205 -57 73 -7 111
-12 195 -26 36 -6 79 -13 95 -15 17 -3 37 -7 45 -10 22 -8 91 -17 125 -17 34
0 141 12 158 18 32 11 80 15 162 14 261 -4 315 -3 370 4 83 11 315 46 345 52
61 13 101 17 295 30 38 3 78 7 90 9 39 8 402 151 550 217 11 5 64 25 118 44
54 19 112 42 129 51 66 34 272 190 460 347 187 157 261 214 390 301 38 25 92
80 157 160 55 66 188 209 296 316 161 159 205 209 244 275 25 44 51 87 56 96
6 9 47 89 92 178 45 89 114 207 152 264 82 120 86 130 95 222 19 188 16 178
103 331 64 112 64 112 68 205 9 176 10 179 74 404 11 39 32 131 46 205 28 138
29 212 5 330 -10 50 -7 182 6 275 15 109 7 283 -22 445 -2 14 -9 54 -14 89 -6
36 -13 67 -14 70 -2 3 -7 24 -10 46 -17 107 -111 385 -216 635 -45 107 -102
251 -126 320 -43 118 -77 193 -115 250 -9 14 -37 57 -62 95 -25 39 -80 108
-124 155 -94 102 -106 119 -168 235 -59 110 -74 133 -167 249 -40 51 -109 121
-153 157 -131 106 -155 129 -235 239 -86 115 -96 126 -220 221 -99 75 -106 78
-264 119 -96 25 -141 43 -238 98 -124 70 -140 81 -248 186 -36 35 -76 70 -90
79 -14 9 -104 32 -200 52 -96 20 -182 38 -190 40 -125 28 -207 52 -315 90
-115 41 -142 47 -230 50 -121 5 -243 14 -276 20 -13 3 -42 7 -64 9 -22 3 -76
10 -120 16 -44 6 -98 13 -120 16 -22 3 -52 7 -68 10 -41 7 -135 13 -139 9z"/>
</g>
</svg>
