<?xml version="1.0" standalone="no"?>
<!DOCTYPE svg PUBLIC "-//W3C//DTD SVG 20010904//EN"
 "http://www.w3.org/TR/2001/REC-SVG-20010904/DTD/svg10.dtd">
<svg version="1.0" xmlns="http://www.w3.org/2000/svg"
 width="260.000000pt" height="260.000000pt" viewBox="0 0 260.000000 260.000000"
 preserveAspectRatio="xMidYMid meet">
<metadata>
Created by potrace 1.14, written by Peter Selinger 2001-2017
</metadata>
<g transform="translate(0.000000,260.000000) scale(0.100000,-0.100000)"
fill="#000000" stroke="none">
<path d="M1136 2523 c-2 -3 -21 -6 -42 -9 -220 -26 -474 -155 -649 -329 -185
-185 -311 -430 -341 -664 -3 -25 -7 -56 -9 -68 -3 -20 1 -23 28 -23 24 0 28
-3 19 -12 -6 -6 -21 -13 -32 -15 -10 -1 -25 -4 -31 -5 -17 -4 -55 -41 -51 -50
1 -5 -2 -8 -8 -8 -5 0 -10 -18 -10 -40 0 -22 5 -40 10 -40 6 0 9 -5 8 -12 -2
-7 7 -17 20 -23 12 -5 22 -13 22 -18 0 -4 4 -5 10 -2 5 3 10 2 10 -3 0 -5 8
-9 18 -9 34 0 42 -3 42 -17 0 -8 -8 -13 -18 -11 -32 5 -32 1 -8 -111 12 -55
63 -188 102 -264 136 -265 389 -481 670 -576 137 -46 254 -63 409 -59 188 4
347 41 496 115 345 173 585 493 653 873 4 24 1 27 -20 27 -45 0 -20 23 27 25
57 3 68 6 93 30 46 43 51 93 13 137 -32 36 -48 41 -142 47 -20 2 -20 2 -1 16
10 8 22 12 26 10 16 -10 17 22 3 100 -75 435 -382 794 -799 934 -123 41 -246
60 -392 59 -67 -1 -124 -3 -126 -5z"/>
</g>
</svg>
